# xmcd
#
# Track frame offsets: 
#        150
#        11775
#        25788
#        42447
#        69672
#        89668
#        103245
#        118589
#        132014
#        148889
#        163985
#        181041
#        200241
#        211261
#        226608
#        241141
#        249166
#        263590
#        278362
#        294112
#        310678
#        319466
#        333029
#        345759
#
# Disc length: 4763 seconds
#
# Revision: 0
# Processed by: cddbd v1.5.2PL0 Copyright (c) Steve Scherf et al.
# Submitted via: ExactAudioCopy v0.95a5
#
DISCID=4e129918
DTITLE=Hayseed Dixie - Country Route CD2
DYEAR=2011
DGENRE=Country
TTITLE0=Tolerance
TTITLE1=Fat Bottom Girls
TTITLE2=Whole Lotta Rosie
TTITLE3=Don't Cry For Me
TTITLE4=In The Backyard
TTITLE5=Uncle Virgil
TTITLE6=This Fire
TTITLE7=Kirby Hill
TTITLE8=Feel Like Making Love
TTITLE9=Walking Cane
TTITLE10=Paint It Black
TTITLE11=Walk This Way
TTITLE12=Moonshiner's Daughter
TTITLE13=The Rider Song
TTITLE14=Duelling Banjos
TTITLE15=BBQ (extra track)
TTITLE16=Strawberry Fields Forever
TTITLE17=Devil Woman
TTITLE18=Eine Kleine Trinkemusik
TTITLE19=Bohemian Rhapsody
TTITLE20=She Was Skinny When I Met Her
TTITLE21=Before Your Old Man Gets Home
TTITLE22=More Pretty Girls Than One
TTITLE23=Breaking The Law
EXTD=
EXTT0=
EXTT1=
EXTT2=
EXTT3=
EXTT4=
EXTT5=
EXTT6=
EXTT7=
EXTT8=
EXTT9=
EXTT10=
EXTT11=
EXTT12=
EXTT13=
EXTT14=
EXTT15=
EXTT16=
EXTT17=
EXTT18=
EXTT19=
EXTT20=
EXTT21=
EXTT22=
EXTT23=
PLAYORDER=
